<svg width="900" height="260" viewBox="0 0 900 260" xmlns="http://www.w3.org/2000/svg">
  <defs>
    <linearGradient id="bg4" x1="0%" y1="0%" x2="100%" y2="100%">
      <stop offset="0%" style="stop-color:#0d0d0d"/>
      <stop offset="100%" style="stop-color:#111827"/>
    </linearGradient>
    <linearGradient id="acc4" x1="0%" y1="0%" x2="100%" y2="0%">
      <stop offset="0%" style="stop-color:#e94560"/>
      <stop offset="100%" style="stop-color:#ff6b6b"/>
    </linearGradient>
  </defs>

  <rect width="900" height="260" fill="url(#bg4)"/>
  <defs>
    <pattern id="grid4" width="40" height="40" patternUnits="userSpaceOnUse">
      <path d="M 40 0 L 0 0 0 40" fill="none" stroke="#ffffff" stroke-width="0.15" stroke-opacity="0.06"/>
    </pattern>
  </defs>
  <rect width="900" height="260" fill="url(#grid4)"/>

  <!-- Section heading -->
  <text x="30" y="44" font-family="'Georgia', serif" font-weight="900" font-size="26" fill="#ffffff" letter-spacing="2">CERTIFICATIONS</text>
  <text x="30" y="60" font-family="'Georgia', serif" font-weight="900" font-size="26" fill="none" stroke="#ffffff" stroke-width="0.8" stroke-opacity="0.15" letter-spacing="2">CERTIFICATIONS</text>
  <rect x="30" y="68" width="60" height="2.5" fill="url(#acc4)" rx="2"/>

  <!-- Cert pill helper: col1 -->
  <!-- Row 1 -->
  <rect x="30"  y="88" width="194" height="44" rx="10" fill="#1e1e2e" stroke="#1BA0D7" stroke-width="0.8"/>
  <rect x="30"  y="88" width="4"   height="44" rx="2"  fill="#1BA0D7"/>
  <text x="48"  y="108" font-family="'Georgia', serif" font-weight="700" font-size="11" fill="#ffffff">Cybersecurity</text>
  <text x="48"  y="122" font-family="'Georgia', serif" font-size="9.5" fill="#718096">Cisco Networking Academy</text>

  <rect x="234" y="88" width="194" height="44" rx="10" fill="#1e1e2e" stroke="#0096D6" stroke-width="0.8"/>
  <rect x="234" y="88" width="4"   height="44" rx="2"  fill="#0096D6"/>
  <text x="252" y="108" font-family="'Georgia', serif" font-weight="700" font-size="11" fill="#ffffff">AI for Beginners</text>
  <text x="252" y="122" font-family="'Georgia', serif" font-size="9.5" fill="#718096">HP Foundation &amp; HP Life</text>

  <rect x="438" y="88" width="194" height="44" rx="10" fill="#1e1e2e" stroke="#0096D6" stroke-width="0.8"/>
  <rect x="438" y="88" width="4"   height="44" rx="2"  fill="#0096D6"/>
  <text x="456" y="108" font-family="'Georgia', serif" font-weight="700" font-size="11" fill="#ffffff">Cybersecurity Awareness</text>
  <text x="456" y="122" font-family="'Georgia', serif" font-size="9.5" fill="#718096">HP Foundation &amp; HP Life</text>

  <rect x="642" y="88" width="228" height="44" rx="10" fill="#1e1e2e" stroke="#6DB33F" stroke-width="0.8"/>
  <rect x="642" y="88" width="4"   height="44" rx="2"  fill="#6DB33F"/>
  <text x="660" y="108" font-family="'Georgia', serif" font-weight="700" font-size="11" fill="#ffffff">Spring Boot for Beginners</text>
  <text x="660" y="122" font-family="'Georgia', serif" font-size="9.5" fill="#718096">Amigoscode</text>

  <!-- Row 2 -->
  <rect x="30"  y="144" width="194" height="44" rx="10" fill="#1e1e2e" stroke="#F2C811" stroke-width="0.8"/>
  <rect x="30"  y="144" width="4"   height="44" rx="2"  fill="#F2C811"/>
  <text x="48"  y="164" font-family="'Georgia', serif" font-weight="700" font-size="11" fill="#ffffff">Microsoft Power BI</text>
  <text x="48"  y="178" font-family="'Georgia', serif" font-size="9.5" fill="#718096">Cambridge Intl × UniAthena</text>

  <rect x="234" y="144" width="194" height="44" rx="10" fill="#1e1e2e" stroke="#005571" stroke-width="0.8"/>
  <rect x="234" y="144" width="4"   height="44" rx="2"  fill="#005571"/>
  <text x="252" y="164" font-family="'Georgia', serif" font-weight="700" font-size="11" fill="#ffffff">Data Quality</text>
  <text x="252" y="178" font-family="'Georgia', serif" font-size="9.5" fill="#718096">Global Health Learning Center</text>

  <rect x="438" y="144" width="432" height="44" rx="10" fill="#1e1e2e" stroke="#003366" stroke-width="0.8"/>
  <rect x="438" y="144" width="4"   height="44" rx="2"  fill="#003366"/>
  <text x="456" y="164" font-family="'Georgia', serif" font-weight="700" font-size="11" fill="#ffffff">Child Online Protection Training</text>
  <text x="456" y="178" font-family="'Georgia', serif" font-size="9.5" fill="#718096">International Telecommunication Union (ITU) · 2026</text>

  <!-- All certs year badge -->
  <rect x="820" y="88" width="52" height="20" rx="10" fill="#e94560" fill-opacity="0.15" stroke="#e94560" stroke-width="0.8"/>
  <text x="846" y="102" text-anchor="middle" font-family="'Georgia', serif" font-size="10" fill="#e94560">2026</text>
  <rect x="820" y="144" width="52" height="20" rx="10" fill="#e94560" fill-opacity="0.15" stroke="#e94560" stroke-width="0.8"/>
  <text x="846" y="158" text-anchor="middle" font-family="'Georgia', serif" font-size="10" fill="#e94560">2026</text>

  <!-- BSc banner -->
  <rect x="30" y="204" width="840" height="44" rx="10" fill="#1e1e2e" stroke="#e94560" stroke-width="1"/>
  <rect x="30" y="204" width="4"   height="44" rx="2"  fill="url(#acc4)"/>
  <text x="48"  y="224" font-family="'Georgia', serif" font-weight="700" font-size="12" fill="#ffffff">BSc Information Technology</text>
  <text x="48"  y="240" font-family="'Georgia', serif" font-size="10" fill="#718096">Malawi University of Business and Applied Sciences (MUBAS) · 2022 – 2025</text>
  <rect x="810" y="214" width="46" height="20" rx="10" fill="#e94560" fill-opacity="0.15" stroke="#e94560" stroke-width="0.8"/>
  <text x="833" y="228" text-anchor="middle" font-family="'Georgia', serif" font-size="10" fill="#e94560">2025</text>
</svg>
