<svg width="900" height="260" viewBox="0 0 900 260" xmlns="http://www.w3.org/2000/svg">
  <defs>
    <linearGradient id="bg6" x1="0%" y1="0%" x2="100%" y2="100%">
      <stop offset="0%" style="stop-color:#0d0d0d"/>
      <stop offset="100%" style="stop-color:#111827"/>
    </linearGradient>
    <linearGradient id="acc6" x1="0%" y1="0%" x2="100%" y2="0%">
      <stop offset="0%" style="stop-color:#e94560"/>
      <stop offset="100%" style="stop-color:#ff6b6b"/>
    </linearGradient>
  </defs>

  <rect width="900" height="260" fill="url(#bg6)"/>
  <defs>
    <pattern id="grid6" width="40" height="40" patternUnits="userSpaceOnUse">
      <path d="M 40 0 L 0 0 0 40" fill="none" stroke="#ffffff" stroke-width="0.15" stroke-opacity="0.06"/>
    </pattern>
  </defs>
  <rect width="900" height="260" fill="url(#grid6)"/>

  <!-- Section heading -->
  <text x="30" y="44" font-family="'Georgia', serif" font-weight="900" font-size="26" fill="#ffffff" letter-spacing="2">TECH STACK</text>
  <text x="30" y="60" font-family="'Georgia', serif" font-weight="900" font-size="26" fill="none" stroke="#ffffff" stroke-width="0.8" stroke-opacity="0.15" letter-spacing="2">TECH STACK</text>
  <rect x="30" y="68" width="60" height="2.5" fill="url(#acc6)" rx="2"/>

  <!-- Category 1: Languages -->
  <rect x="30" y="86" width="200" height="158" rx="12" fill="#1a1a2e" stroke="#e94560" stroke-width="0.7" stroke-opacity="0.5"/>
  <rect x="30" y="86" width="200" height="32" rx="12" fill="#e94560" fill-opacity="0.15"/>
  <rect x="30" y="98" width="200" height="20" fill="#e94560" fill-opacity="0.15"/>
  <text x="130" y="107" text-anchor="middle" font-family="'Georgia', serif" font-weight="700" font-size="11" fill="#e94560" letter-spacing="1">LANGUAGES</text>

  <text x="50" y="134" font-family="'Georgia', serif" font-size="11" fill="#ffffff">JavaScript</text>
  <rect x="160" y="122" width="56" height="18" rx="9" fill="#F7DF1E" fill-opacity="0.2"/>
  <text x="188" y="135" text-anchor="middle" font-family="'Georgia', serif" font-size="9" fill="#F7DF1E">JS</text>

  <text x="50" y="158" font-family="'Georgia', serif" font-size="11" fill="#ffffff">TypeScript</text>
  <rect x="160" y="146" width="56" height="18" rx="9" fill="#007ACC" fill-opacity="0.2"/>
  <text x="188" y="159" text-anchor="middle" font-family="'Georgia', serif" font-size="9" fill="#007ACC">TS</text>

  <text x="50" y="182" font-family="'Georgia', serif" font-size="11" fill="#ffffff">Python</text>
  <rect x="160" y="170" width="56" height="18" rx="9" fill="#3776AB" fill-opacity="0.2"/>
  <text x="188" y="183" text-anchor="middle" font-family="'Georgia', serif" font-size="9" fill="#3776AB">PY</text>

  <text x="50" y="206" font-family="'Georgia', serif" font-size="11" fill="#ffffff">Java</text>
  <rect x="160" y="194" width="56" height="18" rx="9" fill="#ED8B00" fill-opacity="0.2"/>
  <text x="188" y="207" text-anchor="middle" font-family="'Georgia', serif" font-size="9" fill="#ED8B00">JV</text>

  <text x="50" y="230" font-family="'Georgia', serif" font-size="11" fill="#ffffff">HTML · CSS</text>
  <rect x="160" y="218" width="56" height="18" rx="9" fill="#E34F26" fill-opacity="0.2"/>
  <text x="188" y="231" text-anchor="middle" font-family="'Georgia', serif" font-size="9" fill="#E34F26">WEB</text>

  <!-- Category 2: Frontend -->
  <rect x="242" y="86" width="200" height="158" rx="12" fill="#1a1a2e" stroke="#c05621" stroke-width="0.7" stroke-opacity="0.6"/>
  <rect x="242" y="86" width="200" height="32" rx="12" fill="#c05621" fill-opacity="0.15"/>
  <rect x="242" y="98" width="200" height="20" fill="#c05621" fill-opacity="0.15"/>
  <text x="342" y="107" text-anchor="middle" font-family="'Georgia', serif" font-weight="700" font-size="11" fill="#fed7aa" letter-spacing="1">FRONTEND</text>

  <text x="262" y="134" font-family="'Georgia', serif" font-size="11" fill="#ffffff">React</text>
  <rect x="372" y="122" width="56" height="18" rx="9" fill="#61DAFB" fill-opacity="0.2"/>
  <text x="400" y="135" text-anchor="middle" font-family="'Georgia', serif" font-size="9" fill="#61DAFB">RCT</text>

  <text x="262" y="158" font-family="'Georgia', serif" font-size="11" fill="#ffffff">Vite</text>
  <rect x="372" y="146" width="56" height="18" rx="9" fill="#646CFF" fill-opacity="0.2"/>
  <text x="400" y="159" text-anchor="middle" font-family="'Georgia', serif" font-size="9" fill="#646CFF">VTE</text>

  <text x="262" y="182" font-family="'Georgia', serif" font-size="11" fill="#ffffff">Figma</text>
  <rect x="372" y="170" width="56" height="18" rx="9" fill="#F24E1E" fill-opacity="0.2"/>
  <text x="400" y="183" text-anchor="middle" font-family="'Georgia', serif" font-size="9" fill="#F24E1E">FIG</text>

  <!-- Category 3: Backend -->
  <rect x="454" y="86" width="200" height="158" rx="12" fill="#1a1a2e" stroke="#276749" stroke-width="0.7" stroke-opacity="0.6"/>
  <rect x="454" y="86" width="200" height="32" rx="12" fill="#276749" fill-opacity="0.15"/>
  <rect x="454" y="98" width="200" height="20" fill="#276749" fill-opacity="0.15"/>
  <text x="554" y="107" text-anchor="middle" font-family="'Georgia', serif" font-weight="700" font-size="11" fill="#9ae6b4" letter-spacing="1">BACKEND &amp; DB</text>

  <text x="474" y="134" font-family="'Georgia', serif" font-size="11" fill="#ffffff">FastAPI</text>
  <rect x="584" y="122" width="56" height="18" rx="9" fill="#009688" fill-opacity="0.2"/>
  <text x="612" y="135" text-anchor="middle" font-family="'Georgia', serif" font-size="9" fill="#009688">API</text>

  <text x="474" y="158" font-family="'Georgia', serif" font-size="11" fill="#ffffff">Spring Boot</text>
  <rect x="584" y="146" width="56" height="18" rx="9" fill="#6DB33F" fill-opacity="0.2"/>
  <text x="612" y="159" text-anchor="middle" font-family="'Georgia', serif" font-size="9" fill="#6DB33F">SB</text>

  <text x="474" y="182" font-family="'Georgia', serif" font-size="11" fill="#ffffff">PostgreSQL</text>
  <rect x="584" y="170" width="56" height="18" rx="9" fill="#316192" fill-opacity="0.2"/>
  <text x="612" y="183" text-anchor="middle" font-family="'Georgia', serif" font-size="9" fill="#316192">PG</text>

  <text x="474" y="206" font-family="'Georgia', serif" font-size="11" fill="#ffffff">MySQL</text>
  <rect x="584" y="194" width="56" height="18" rx="9" fill="#005C84" fill-opacity="0.2"/>
  <text x="612" y="207" text-anchor="middle" font-family="'Georgia', serif" font-size="9" fill="#005C84">SQL</text>

  <!-- Category 4: Infra -->
  <rect x="666" y="86" width="204" height="158" rx="12" fill="#1a1a2e" stroke="#2b4c7e" stroke-width="0.7" stroke-opacity="0.6"/>
  <rect x="666" y="86" width="204" height="32" rx="12" fill="#2b4c7e" fill-opacity="0.2"/>
  <rect x="666" y="98" width="204" height="20" fill="#2b4c7e" fill-opacity="0.2"/>
  <text x="768" y="107" text-anchor="middle" font-family="'Georgia', serif" font-weight="700" font-size="11" fill="#90cdf4" letter-spacing="1">INFRA &amp; DEVOPS</text>

  <text x="686" y="134" font-family="'Georgia', serif" font-size="11" fill="#ffffff">Docker</text>
  <rect x="808" y="122" width="48" height="18" rx="9" fill="#2496ED" fill-opacity="0.2"/>
  <text x="832" y="135" text-anchor="middle" font-family="'Georgia', serif" font-size="9" fill="#2496ED">DCK</text>

  <text x="686" y="158" font-family="'Georgia', serif" font-size="11" fill="#ffffff">Linux</text>
  <rect x="808" y="146" width="48" height="18" rx="9" fill="#FCC624" fill-opacity="0.2"/>
  <text x="832" y="159" text-anchor="middle" font-family="'Georgia', serif" font-size="9" fill="#FCC624">LNX</text>

  <text x="686" y="182" font-family="'Georgia', serif" font-size="11" fill="#ffffff">Git</text>
  <rect x="808" y="170" width="48" height="18" rx="9" fill="#F05032" fill-opacity="0.2"/>
  <text x="832" y="183" text-anchor="middle" font-family="'Georgia', serif" font-size="9" fill="#F05032">GIT</text>

  <text x="686" y="206" font-family="'Georgia', serif" font-size="11" fill="#ffffff">Power BI</text>
  <rect x="808" y="194" width="48" height="18" rx="9" fill="#F2C811" fill-opacity="0.2"/>
  <text x="832" y="207" text-anchor="middle" font-family="'Georgia', serif" font-size="9" fill="#F2C811">BI</text>

  <text x="686" y="230" font-family="'Georgia', serif" font-size="11" fill="#ffffff">Active Directory</text>
  <rect x="808" y="218" width="48" height="18" rx="9" fill="#0078D4" fill-opacity="0.2"/>
  <text x="832" y="231" text-anchor="middle" font-family="'Georgia', serif" font-size="9" fill="#0078D4">AD</text>
</svg>
